# Generated for GridStrategyMapSystem path visualization.
# Units: centimeters. Mesh lies in XY plane, flat join face is at X=0, bottom face is Z=0.
# Matched to GSM_PathArrow_Body_Rect_Matched_100cm start: Y=-9..9, Z=0..6.
mtllib GSM_PathArrowKit.mtl
o GSM_PathArrow_StartCap_Semicircle_Matched_18cm
usemtl PathArrow_Cyan
s off
v 0.0000 -9.0000 0.0000
v -3.4442 -8.3149 0.0000
v -6.3640 -6.3640 0.0000
v -8.3149 -3.4442 0.0000
v -9.0000 0.0000 0.0000
v -8.3149 3.4442 0.0000
v -6.3640 6.3640 0.0000
v -3.4442 8.3149 0.0000
v 0.0000 9.0000 0.0000
v 0.0000 -9.0000 6.0000
v -3.4442 -8.3149 6.0000
v -6.3640 -6.3640 6.0000
v -8.3149 -3.4442 6.0000
v -9.0000 0.0000 6.0000
v -8.3149 3.4442 6.0000
v -6.3640 6.3640 6.0000
v -3.4442 8.3149 6.0000
v 0.0000 9.0000 6.0000
vn 0.0000 0.0000 1.0000
vn 0.0000 0.0000 -1.0000
vn -0.1951 -0.9808 0.0000
vn -0.5556 -0.8315 0.0000
vn -0.8315 -0.5556 0.0000
vn -0.9808 -0.1951 0.0000
vn -0.9808 0.1951 0.0000
vn -0.8315 0.5556 0.0000
vn -0.5556 0.8315 0.0000
vn -0.1951 0.9808 0.0000
vn 1.0000 0.0000 0.0000
f 18//1 17//1 16//1
f 18//1 16//1 15//1
f 18//1 15//1 14//1
f 18//1 14//1 13//1
f 18//1 13//1 12//1
f 18//1 12//1 11//1
f 18//1 11//1 10//1
f 1//2 2//2 3//2
f 1//2 3//2 4//2
f 1//2 4//2 5//2
f 1//2 5//2 6//2
f 1//2 6//2 7//2
f 1//2 7//2 8//2
f 1//2 8//2 9//2
f 1//3 10//3 11//3 2//3
f 2//4 11//4 12//4 3//4
f 3//5 12//5 13//5 4//5
f 4//6 13//6 14//6 5//6
f 5//7 14//7 15//7 6//7
f 6//8 15//8 16//8 7//8
f 7//9 16//9 17//9 8//9
f 8//10 17//10 18//10 9//10
f 9//11 18//11 10//11 1//11
